<mxfile host="Electron" agent="Mozilla/5.0 (Windows NT 10.0; Win64; x64) AppleWebKit/537.36 (KHTML, like Gecko) draw.io/28.1.2 Chrome/138.0.7204.243 Electron/37.4.0 Safari/537.36" version="28.1.2">
  <diagram name="Trang-1" id="CnFlHAayNxayupSmeATM">
    <mxGraphModel dx="1389" dy="835" grid="1" gridSize="10" guides="1" tooltips="1" connect="1" arrows="1" fold="1" page="1" pageScale="1" pageWidth="827" pageHeight="1169" math="0" shadow="0">
      <root>
        <mxCell id="0" />
        <mxCell id="1" parent="0" />
        <mxCell id="PDH96MicfJy0nivkgiAP-16" style="edgeStyle=orthogonalEdgeStyle;rounded=0;orthogonalLoop=1;jettySize=auto;html=1;exitX=1;exitY=0.5;exitDx=0;exitDy=0;" edge="1" parent="1" source="PDH96MicfJy0nivkgiAP-1">
          <mxGeometry relative="1" as="geometry">
            <mxPoint x="240" y="320" as="targetPoint" />
          </mxGeometry>
        </mxCell>
        <mxCell id="PDH96MicfJy0nivkgiAP-1" value="&lt;font style=&quot;font-size: 16px;&quot;&gt;Ổ đĩa gốc C&lt;/font&gt;" style="ellipse;whiteSpace=wrap;html=1;" vertex="1" parent="1">
          <mxGeometry x="10" y="280" width="120" height="80" as="geometry" />
        </mxCell>
        <mxCell id="PDH96MicfJy0nivkgiAP-2" value="" style="endArrow=classic;html=1;rounded=0;exitX=0.587;exitY=-0.04;exitDx=0;exitDy=0;exitPerimeter=0;" edge="1" parent="1" source="PDH96MicfJy0nivkgiAP-1">
          <mxGeometry width="50" height="50" relative="1" as="geometry">
            <mxPoint x="390" y="290" as="sourcePoint" />
            <mxPoint x="240" y="120" as="targetPoint" />
          </mxGeometry>
        </mxCell>
        <mxCell id="PDH96MicfJy0nivkgiAP-6" style="edgeStyle=orthogonalEdgeStyle;rounded=0;orthogonalLoop=1;jettySize=auto;html=1;" edge="1" parent="1" source="PDH96MicfJy0nivkgiAP-3">
          <mxGeometry relative="1" as="geometry">
            <mxPoint x="410" y="103" as="targetPoint" />
          </mxGeometry>
        </mxCell>
        <mxCell id="PDH96MicfJy0nivkgiAP-3" value="&lt;font style=&quot;font-size: 17px;&quot;&gt;Program files&lt;/font&gt;" style="text;html=1;align=center;verticalAlign=middle;resizable=0;points=[];autosize=1;strokeColor=none;fillColor=none;" vertex="1" parent="1">
          <mxGeometry x="200" y="88" width="120" height="30" as="geometry" />
        </mxCell>
        <mxCell id="PDH96MicfJy0nivkgiAP-4" value="" style="endArrow=classic;html=1;rounded=0;exitX=0.97;exitY=0;exitDx=0;exitDy=0;exitPerimeter=0;" edge="1" parent="1" source="PDH96MicfJy0nivkgiAP-3">
          <mxGeometry width="50" height="50" relative="1" as="geometry">
            <mxPoint x="330" y="150" as="sourcePoint" />
            <mxPoint x="390" y="60" as="targetPoint" />
          </mxGeometry>
        </mxCell>
        <mxCell id="PDH96MicfJy0nivkgiAP-5" value="&lt;font style=&quot;font-size: 16px;&quot;&gt;Common files&lt;/font&gt;" style="text;html=1;align=center;verticalAlign=middle;resizable=0;points=[];autosize=1;strokeColor=none;fillColor=none;" vertex="1" parent="1">
          <mxGeometry x="375" y="40" width="120" height="30" as="geometry" />
        </mxCell>
        <mxCell id="PDH96MicfJy0nivkgiAP-7" value="&lt;font style=&quot;font-size: 16px;&quot;&gt;Microsoft office&lt;/font&gt;" style="text;html=1;align=center;verticalAlign=middle;resizable=0;points=[];autosize=1;strokeColor=none;fillColor=none;" vertex="1" parent="1">
          <mxGeometry x="414" y="88" width="130" height="30" as="geometry" />
        </mxCell>
        <mxCell id="PDH96MicfJy0nivkgiAP-9" value="" style="endArrow=classic;html=1;rounded=0;exitX=1;exitY=0;exitDx=0;exitDy=0;" edge="1" parent="1" source="PDH96MicfJy0nivkgiAP-1">
          <mxGeometry width="50" height="50" relative="1" as="geometry">
            <mxPoint x="390" y="280" as="sourcePoint" />
            <mxPoint x="240" y="220" as="targetPoint" />
          </mxGeometry>
        </mxCell>
        <mxCell id="PDH96MicfJy0nivkgiAP-13" style="edgeStyle=orthogonalEdgeStyle;rounded=0;orthogonalLoop=1;jettySize=auto;html=1;" edge="1" parent="1" source="PDH96MicfJy0nivkgiAP-10">
          <mxGeometry relative="1" as="geometry">
            <mxPoint x="400" y="205" as="targetPoint" />
          </mxGeometry>
        </mxCell>
        <mxCell id="PDH96MicfJy0nivkgiAP-10" value="&lt;font style=&quot;font-size: 15px;&quot;&gt;Program Files (*86)&lt;/font&gt;" style="text;html=1;align=center;verticalAlign=middle;resizable=0;points=[];autosize=1;strokeColor=none;fillColor=none;" vertex="1" parent="1">
          <mxGeometry x="200" y="190" width="150" height="30" as="geometry" />
        </mxCell>
        <mxCell id="PDH96MicfJy0nivkgiAP-11" value="" style="endArrow=classic;html=1;rounded=0;exitX=1.003;exitY=0.253;exitDx=0;exitDy=0;exitPerimeter=0;" edge="1" parent="1" source="PDH96MicfJy0nivkgiAP-10">
          <mxGeometry width="50" height="50" relative="1" as="geometry">
            <mxPoint x="360" y="230" as="sourcePoint" />
            <mxPoint x="400" y="170" as="targetPoint" />
          </mxGeometry>
        </mxCell>
        <mxCell id="PDH96MicfJy0nivkgiAP-12" value="&lt;font style=&quot;font-size: 16px;&quot;&gt;Google&lt;/font&gt;" style="text;html=1;align=center;verticalAlign=middle;resizable=0;points=[];autosize=1;strokeColor=none;fillColor=none;" vertex="1" parent="1">
          <mxGeometry x="390" y="148" width="80" height="30" as="geometry" />
        </mxCell>
        <mxCell id="PDH96MicfJy0nivkgiAP-15" value="&lt;font style=&quot;font-size: 16px;&quot;&gt;Adobe&lt;/font&gt;" style="text;strokeColor=none;align=center;fillColor=none;html=1;verticalAlign=middle;whiteSpace=wrap;rounded=0;" vertex="1" parent="1">
          <mxGeometry x="420" y="200" width="60" height="30" as="geometry" />
        </mxCell>
        <mxCell id="PDH96MicfJy0nivkgiAP-56" style="edgeStyle=orthogonalEdgeStyle;rounded=0;orthogonalLoop=1;jettySize=auto;html=1;" edge="1" parent="1" source="PDH96MicfJy0nivkgiAP-17" target="PDH96MicfJy0nivkgiAP-19">
          <mxGeometry relative="1" as="geometry" />
        </mxCell>
        <mxCell id="PDH96MicfJy0nivkgiAP-17" value="&lt;font style=&quot;font-size: 16px;&quot;&gt;User&amp;nbsp;&lt;/font&gt;" style="text;html=1;align=center;verticalAlign=middle;resizable=0;points=[];autosize=1;strokeColor=none;fillColor=none;" vertex="1" parent="1">
          <mxGeometry x="245" y="300" width="60" height="30" as="geometry" />
        </mxCell>
        <mxCell id="PDH96MicfJy0nivkgiAP-19" value="&lt;font style=&quot;font-size: 16px;&quot;&gt;Tên Người dùng&lt;/font&gt;" style="text;html=1;align=center;verticalAlign=middle;resizable=0;points=[];autosize=1;strokeColor=none;fillColor=none;" vertex="1" parent="1">
          <mxGeometry x="420" y="300" width="140" height="30" as="geometry" />
        </mxCell>
        <mxCell id="PDH96MicfJy0nivkgiAP-22" value="&lt;font style=&quot;font-size: 16px;&quot;&gt;Desktop&lt;/font&gt;" style="text;html=1;align=center;verticalAlign=middle;resizable=0;points=[];autosize=1;strokeColor=none;fillColor=none;" vertex="1" parent="1">
          <mxGeometry x="577" y="326.8" width="80" height="30" as="geometry" />
        </mxCell>
        <mxCell id="PDH96MicfJy0nivkgiAP-48" style="edgeStyle=orthogonalEdgeStyle;rounded=0;orthogonalLoop=1;jettySize=auto;html=1;" edge="1" parent="1" source="PDH96MicfJy0nivkgiAP-23">
          <mxGeometry relative="1" as="geometry">
            <mxPoint x="697" y="379.77894736842114" as="targetPoint" />
          </mxGeometry>
        </mxCell>
        <mxCell id="PDH96MicfJy0nivkgiAP-23" value="&lt;font style=&quot;font-size: 16px;&quot;&gt;Documents&lt;/font&gt;" style="text;html=1;align=center;verticalAlign=middle;resizable=0;points=[];autosize=1;strokeColor=none;fillColor=none;" vertex="1" parent="1">
          <mxGeometry x="572" y="364.8" width="100" height="30" as="geometry" />
        </mxCell>
        <mxCell id="PDH96MicfJy0nivkgiAP-25" value="&lt;font style=&quot;font-size: 16px;&quot;&gt;Baocao.docx&lt;/font&gt;" style="text;html=1;align=center;verticalAlign=middle;resizable=0;points=[];autosize=1;strokeColor=none;fillColor=none;" vertex="1" parent="1">
          <mxGeometry x="707" y="364.8" width="120" height="30" as="geometry" />
        </mxCell>
        <mxCell id="PDH96MicfJy0nivkgiAP-26" value="&lt;font style=&quot;font-size: 16px;&quot;&gt;Downloads&lt;/font&gt;" style="text;html=1;align=center;verticalAlign=middle;resizable=0;points=[];autosize=1;strokeColor=none;fillColor=none;" vertex="1" parent="1">
          <mxGeometry x="572" y="404.8" width="100" height="30" as="geometry" />
        </mxCell>
        <mxCell id="PDH96MicfJy0nivkgiAP-27" value="&lt;font style=&quot;font-size: 16px;&quot;&gt;Picture&lt;/font&gt;" style="text;html=1;align=center;verticalAlign=middle;resizable=0;points=[];autosize=1;strokeColor=none;fillColor=none;" vertex="1" parent="1">
          <mxGeometry x="577" y="444.8" width="70" height="30" as="geometry" />
        </mxCell>
        <mxCell id="PDH96MicfJy0nivkgiAP-29" value="&lt;font style=&quot;font-size: 16px;&quot;&gt;Music&lt;/font&gt;" style="text;html=1;align=center;verticalAlign=middle;resizable=0;points=[];autosize=1;strokeColor=none;fillColor=none;" vertex="1" parent="1">
          <mxGeometry x="572" y="484.8" width="70" height="30" as="geometry" />
        </mxCell>
        <mxCell id="PDH96MicfJy0nivkgiAP-30" value="&lt;font style=&quot;font-size: 16px;&quot;&gt;Videos&lt;/font&gt;" style="text;html=1;align=center;verticalAlign=middle;resizable=0;points=[];autosize=1;strokeColor=none;fillColor=none;" vertex="1" parent="1">
          <mxGeometry x="577" y="526.8000000000001" width="70" height="30" as="geometry" />
        </mxCell>
        <mxCell id="PDH96MicfJy0nivkgiAP-31" value="" style="endArrow=none;html=1;rounded=0;entryX=0.515;entryY=1.08;entryDx=0;entryDy=0;entryPerimeter=0;" edge="1" parent="1">
          <mxGeometry width="50" height="50" relative="1" as="geometry">
            <mxPoint x="554" y="546.8000000000001" as="sourcePoint" />
            <mxPoint x="554.1000000000001" y="309.2" as="targetPoint" />
          </mxGeometry>
        </mxCell>
        <mxCell id="PDH96MicfJy0nivkgiAP-34" value="" style="endArrow=classic;html=1;rounded=0;entryX=0.143;entryY=0.667;entryDx=0;entryDy=0;entryPerimeter=0;" edge="1" parent="1" target="PDH96MicfJy0nivkgiAP-22">
          <mxGeometry width="50" height="50" relative="1" as="geometry">
            <mxPoint x="552" y="346.8" as="sourcePoint" />
            <mxPoint x="542" y="356.8" as="targetPoint" />
          </mxGeometry>
        </mxCell>
        <mxCell id="PDH96MicfJy0nivkgiAP-35" value="" style="endArrow=classic;html=1;rounded=0;" edge="1" parent="1" target="PDH96MicfJy0nivkgiAP-23">
          <mxGeometry width="50" height="50" relative="1" as="geometry">
            <mxPoint x="552" y="379.8" as="sourcePoint" />
            <mxPoint x="542" y="356.8" as="targetPoint" />
          </mxGeometry>
        </mxCell>
        <mxCell id="PDH96MicfJy0nivkgiAP-36" value="" style="endArrow=classic;html=1;rounded=0;" edge="1" parent="1" target="PDH96MicfJy0nivkgiAP-26">
          <mxGeometry width="50" height="50" relative="1" as="geometry">
            <mxPoint x="552" y="416.8" as="sourcePoint" />
            <mxPoint x="542" y="356.8" as="targetPoint" />
          </mxGeometry>
        </mxCell>
        <mxCell id="PDH96MicfJy0nivkgiAP-37" value="" style="endArrow=classic;html=1;rounded=0;" edge="1" parent="1" target="PDH96MicfJy0nivkgiAP-27">
          <mxGeometry width="50" height="50" relative="1" as="geometry">
            <mxPoint x="552" y="456.8" as="sourcePoint" />
            <mxPoint x="542" y="356.8" as="targetPoint" />
          </mxGeometry>
        </mxCell>
        <mxCell id="PDH96MicfJy0nivkgiAP-38" value="" style="endArrow=classic;html=1;rounded=0;entryX=0.04;entryY=0.413;entryDx=0;entryDy=0;entryPerimeter=0;" edge="1" parent="1" target="PDH96MicfJy0nivkgiAP-29">
          <mxGeometry width="50" height="50" relative="1" as="geometry">
            <mxPoint x="552" y="496.8" as="sourcePoint" />
            <mxPoint x="542" y="356.8" as="targetPoint" />
          </mxGeometry>
        </mxCell>
        <mxCell id="PDH96MicfJy0nivkgiAP-39" value="" style="endArrow=classic;html=1;rounded=0;" edge="1" parent="1" target="PDH96MicfJy0nivkgiAP-30">
          <mxGeometry width="50" height="50" relative="1" as="geometry">
            <mxPoint x="552" y="541.8000000000001" as="sourcePoint" />
            <mxPoint x="542" y="356.8" as="targetPoint" />
          </mxGeometry>
        </mxCell>
        <mxCell id="PDH96MicfJy0nivkgiAP-40" value="" style="endArrow=classic;html=1;rounded=0;exitX=0.58;exitY=1;exitDx=0;exitDy=0;exitPerimeter=0;" edge="1" parent="1" source="PDH96MicfJy0nivkgiAP-1">
          <mxGeometry width="50" height="50" relative="1" as="geometry">
            <mxPoint x="390" y="460" as="sourcePoint" />
            <mxPoint x="240" y="440" as="targetPoint" />
          </mxGeometry>
        </mxCell>
        <mxCell id="PDH96MicfJy0nivkgiAP-41" value="&lt;font style=&quot;font-size: 16px;&quot;&gt;Windows&lt;/font&gt;" style="text;html=1;align=center;verticalAlign=middle;resizable=0;points=[];autosize=1;strokeColor=none;fillColor=none;" vertex="1" parent="1">
          <mxGeometry x="225" y="418" width="90" height="30" as="geometry" />
        </mxCell>
        <mxCell id="PDH96MicfJy0nivkgiAP-43" value="&lt;font style=&quot;font-size: 16px;&quot;&gt;System&lt;/font&gt;" style="text;html=1;align=center;verticalAlign=middle;resizable=0;points=[];autosize=1;strokeColor=none;fillColor=none;" vertex="1" parent="1">
          <mxGeometry x="360" y="387.99999999999994" width="80" height="30" as="geometry" />
        </mxCell>
        <mxCell id="PDH96MicfJy0nivkgiAP-45" value="&lt;font style=&quot;font-size: 16px;&quot;&gt;Fonts&lt;/font&gt;" style="text;html=1;align=center;verticalAlign=middle;resizable=0;points=[];autosize=1;strokeColor=none;fillColor=none;" vertex="1" parent="1">
          <mxGeometry x="375" y="540" width="60" height="30" as="geometry" />
        </mxCell>
        <mxCell id="PDH96MicfJy0nivkgiAP-47" value="&lt;font style=&quot;font-size: 16px;&quot;&gt;Temp&lt;/font&gt;" style="text;html=1;align=center;verticalAlign=middle;resizable=0;points=[];autosize=1;strokeColor=none;fillColor=none;" vertex="1" parent="1">
          <mxGeometry x="375" y="469.99999999999994" width="60" height="30" as="geometry" />
        </mxCell>
        <mxCell id="PDH96MicfJy0nivkgiAP-50" value="&lt;font style=&quot;font-size: 16px;&quot;&gt;BÀI TẬP 2&amp;nbsp;&lt;/font&gt;" style="whiteSpace=wrap;html=1;" vertex="1" parent="1">
          <mxGeometry x="10" y="10" width="120" height="60" as="geometry" />
        </mxCell>
        <mxCell id="PDH96MicfJy0nivkgiAP-51" value="-&lt;font style=&quot;font-size: 16px;&quot;&gt;Cách tạo thư mục mới &lt;br/&gt;&lt;br&gt; + Chuột phải---NEW---Folder---nhập tên thư mục&lt;br/&gt;&lt;br&gt; + Ctrl+Shift+N để tạo thư mục ngay lập tức&lt;br/&gt;&lt;br&gt; + Trong File Folder---tab home--chọn New Folder&lt;br/&gt;&lt;br&gt;-Cách di chuyển tệp/ thư mục&lt;br/&gt;&lt;br&gt;+ Chuột phải -- cut -- vị trí mới--Paste&lt;br/&gt;&lt;br&gt;+ Ctrl+X-- di chuyển đến vị trí mới-- crtl+V\&lt;br/&gt;&lt;br&gt;+Kéo thả tệp sang ổ khác khi trong cùng ổ đĩa&lt;br/&gt;&lt;br&gt;-Cách sao chẹp tệp tin/ thư mục&lt;br/&gt;&lt;br&gt;+ Chuột phải --copy--vị trí mới--patse&lt;br/&gt;&lt;br&gt;+chọn file--ctrl+C---vị trí mới--- Ctrl + V&lt;/font&gt;" style="text;whiteSpace=wrap;html=1;" vertex="1" parent="1">
          <mxGeometry x="35" y="585" width="605" height="395" as="geometry" />
        </mxCell>
        <mxCell id="PDH96MicfJy0nivkgiAP-53" value="" style="endArrow=classic;html=1;rounded=0;entryX=0;entryY=0.733;entryDx=0;entryDy=0;entryPerimeter=0;" edge="1" parent="1" source="PDH96MicfJy0nivkgiAP-41" target="PDH96MicfJy0nivkgiAP-43">
          <mxGeometry width="50" height="50" relative="1" as="geometry">
            <mxPoint x="350" y="440" as="sourcePoint" />
            <mxPoint x="400" y="390" as="targetPoint" />
          </mxGeometry>
        </mxCell>
        <mxCell id="PDH96MicfJy0nivkgiAP-54" value="" style="endArrow=classic;html=1;rounded=0;exitX=0.984;exitY=0.998;exitDx=0;exitDy=0;exitPerimeter=0;entryX=-0.028;entryY=0.416;entryDx=0;entryDy=0;entryPerimeter=0;" edge="1" parent="1" source="PDH96MicfJy0nivkgiAP-41" target="PDH96MicfJy0nivkgiAP-47">
          <mxGeometry width="50" height="50" relative="1" as="geometry">
            <mxPoint x="350" y="440" as="sourcePoint" />
            <mxPoint x="400" y="390" as="targetPoint" />
          </mxGeometry>
        </mxCell>
        <mxCell id="PDH96MicfJy0nivkgiAP-55" value="" style="endArrow=classic;html=1;rounded=0;exitX=0.703;exitY=1.167;exitDx=0;exitDy=0;exitPerimeter=0;entryX=0.056;entryY=0.328;entryDx=0;entryDy=0;entryPerimeter=0;" edge="1" parent="1" source="PDH96MicfJy0nivkgiAP-41" target="PDH96MicfJy0nivkgiAP-45">
          <mxGeometry width="50" height="50" relative="1" as="geometry">
            <mxPoint x="350" y="440" as="sourcePoint" />
            <mxPoint x="400" y="390" as="targetPoint" />
          </mxGeometry>
        </mxCell>
      </root>
    </mxGraphModel>
  </diagram>
</mxfile>
